<mxfile host="app.diagrams.net" agent="Mozilla/5.0 (Windows NT 10.0; Win64; x64) AppleWebKit/537.36 (KHTML, like Gecko) Chrome/127.0.0.0 Safari/537.36" version="24.7.7">
  <diagram id="Ht1M8jgEwFfnCIfOTk4-" name="Page-1">
    <mxGraphModel dx="880" dy="444" grid="1" gridSize="10" guides="1" tooltips="1" connect="1" arrows="1" fold="1" page="1" pageScale="1" pageWidth="1169" pageHeight="827" math="0" shadow="0">
      <root>
        <mxCell id="0" />
        <mxCell id="1" parent="0" />
        <mxCell id="3ZAxSjUYN-ONwInewf79-1" value="" style="sketch=0;outlineConnect=0;fontColor=#232F3E;gradientColor=none;fillColor=#232F3D;strokeColor=none;dashed=0;verticalLabelPosition=bottom;verticalAlign=top;align=center;html=1;fontSize=12;fontStyle=0;aspect=fixed;pointerEvents=1;shape=mxgraph.aws4.user;" vertex="1" parent="1">
          <mxGeometry x="10" y="261" width="78" height="78" as="geometry" />
        </mxCell>
        <mxCell id="3ZAxSjUYN-ONwInewf79-2" value="" style="edgeStyle=orthogonalEdgeStyle;html=1;endArrow=block;elbow=vertical;startArrow=none;endFill=1;rounded=0;" edge="1" parent="1">
          <mxGeometry width="100" relative="1" as="geometry">
            <mxPoint x="70" y="298.5" as="sourcePoint" />
            <mxPoint x="170" y="298.5" as="targetPoint" />
          </mxGeometry>
        </mxCell>
        <mxCell id="3ZAxSjUYN-ONwInewf79-5" value="" style="swimlane;startSize=0;" vertex="1" parent="1">
          <mxGeometry x="170" y="200" width="235" height="200" as="geometry">
            <mxRectangle x="400" y="180" width="50" height="40" as="alternateBounds" />
          </mxGeometry>
        </mxCell>
        <mxCell id="3ZAxSjUYN-ONwInewf79-6" value="&lt;b&gt;Cloud9&lt;/b&gt;" style="text;html=1;align=center;verticalAlign=middle;resizable=0;points=[];autosize=1;strokeColor=none;fillColor=none;" vertex="1" parent="3ZAxSjUYN-ONwInewf79-5">
          <mxGeometry x="10" width="60" height="30" as="geometry" />
        </mxCell>
        <mxCell id="3ZAxSjUYN-ONwInewf79-8" value="" style="image;aspect=fixed;html=1;points=[];align=center;fontSize=12;image=img/lib/azure2/general/File.svg;" vertex="1" parent="3ZAxSjUYN-ONwInewf79-5">
          <mxGeometry x="10" y="40" width="36" height="44.36" as="geometry" />
        </mxCell>
        <mxCell id="3ZAxSjUYN-ONwInewf79-9" value="" style="image;aspect=fixed;html=1;points=[];align=center;fontSize=12;image=img/lib/azure2/general/File.svg;" vertex="1" parent="3ZAxSjUYN-ONwInewf79-5">
          <mxGeometry x="99.5" y="35.64" width="36" height="44.36" as="geometry" />
        </mxCell>
        <mxCell id="3ZAxSjUYN-ONwInewf79-10" value="" style="image;aspect=fixed;html=1;points=[];align=center;fontSize=12;image=img/lib/azure2/general/File.svg;" vertex="1" parent="3ZAxSjUYN-ONwInewf79-5">
          <mxGeometry x="170" y="40" width="36" height="44.36" as="geometry" />
        </mxCell>
        <mxCell id="3ZAxSjUYN-ONwInewf79-12" value="buildspec.yml" style="text;html=1;align=center;verticalAlign=middle;resizable=0;points=[];autosize=1;strokeColor=none;fillColor=none;" vertex="1" parent="3ZAxSjUYN-ONwInewf79-5">
          <mxGeometry x="60" y="80" width="100" height="30" as="geometry" />
        </mxCell>
        <mxCell id="3ZAxSjUYN-ONwInewf79-13" value="appspec.yml" style="text;html=1;align=center;verticalAlign=middle;resizable=0;points=[];autosize=1;strokeColor=none;fillColor=none;" vertex="1" parent="3ZAxSjUYN-ONwInewf79-5">
          <mxGeometry x="145" y="80" width="90" height="30" as="geometry" />
        </mxCell>
        <mxCell id="3ZAxSjUYN-ONwInewf79-14" value="settings.xml" style="text;html=1;align=center;verticalAlign=middle;resizable=0;points=[];autosize=1;strokeColor=none;fillColor=none;" vertex="1" parent="3ZAxSjUYN-ONwInewf79-5">
          <mxGeometry x="-10" y="80" width="90" height="30" as="geometry" />
        </mxCell>
        <mxCell id="3ZAxSjUYN-ONwInewf79-18" value="" style="html=1;verticalLabelPosition=bottom;align=center;labelBackgroundColor=#ffffff;verticalAlign=top;strokeWidth=2;strokeColor=#0080F0;shadow=0;dashed=0;shape=mxgraph.ios7.icons.folder;" vertex="1" parent="3ZAxSjUYN-ONwInewf79-5">
          <mxGeometry x="13" y="130" width="30" height="29.5" as="geometry" />
        </mxCell>
        <mxCell id="3ZAxSjUYN-ONwInewf79-17" value="scripts" style="text;html=1;align=center;verticalAlign=middle;resizable=0;points=[];autosize=1;strokeColor=none;fillColor=none;" vertex="1" parent="1">
          <mxGeometry x="170" y="358" width="60" height="30" as="geometry" />
        </mxCell>
        <mxCell id="3ZAxSjUYN-ONwInewf79-19" value="" style="edgeStyle=orthogonalEdgeStyle;html=1;endArrow=block;elbow=vertical;startArrow=none;endFill=1;rounded=0;" edge="1" parent="1">
          <mxGeometry width="100" relative="1" as="geometry">
            <mxPoint x="280" y="120" as="sourcePoint" />
            <mxPoint x="280" y="200" as="targetPoint" />
          </mxGeometry>
        </mxCell>
        <mxCell id="3ZAxSjUYN-ONwInewf79-20" value="" style="sketch=0;points=[[0,0,0],[0.25,0,0],[0.5,0,0],[0.75,0,0],[1,0,0],[0,1,0],[0.25,1,0],[0.5,1,0],[0.75,1,0],[1,1,0],[0,0.25,0],[0,0.5,0],[0,0.75,0],[1,0.25,0],[1,0.5,0],[1,0.75,0]];outlineConnect=0;fontColor=#232F3E;fillColor=#C925D1;strokeColor=#ffffff;dashed=0;verticalLabelPosition=bottom;verticalAlign=top;align=center;html=1;fontSize=12;fontStyle=0;aspect=fixed;shape=mxgraph.aws4.resourceIcon;resIcon=mxgraph.aws4.codeartifact;" vertex="1" parent="1">
          <mxGeometry x="240" y="30" width="78" height="78" as="geometry" />
        </mxCell>
        <mxCell id="3ZAxSjUYN-ONwInewf79-21" value="" style="edgeStyle=orthogonalEdgeStyle;html=1;endArrow=block;elbow=vertical;startArrow=none;endFill=1;rounded=0;" edge="1" parent="1">
          <mxGeometry width="100" relative="1" as="geometry">
            <mxPoint x="405" y="290" as="sourcePoint" />
            <mxPoint x="470" y="290" as="targetPoint" />
          </mxGeometry>
        </mxCell>
        <mxCell id="3ZAxSjUYN-ONwInewf79-22" value="AWS CodeCommit" style="sketch=0;outlineConnect=0;fontColor=#232F3E;gradientColor=none;strokeColor=#ffffff;fillColor=#232F3E;dashed=0;verticalLabelPosition=middle;verticalAlign=bottom;align=center;html=1;whiteSpace=wrap;fontSize=10;fontStyle=1;spacing=3;shape=mxgraph.aws4.productIcon;prIcon=mxgraph.aws4.codecommit;" vertex="1" parent="1">
          <mxGeometry x="470" y="250" width="80" height="110" as="geometry" />
        </mxCell>
        <mxCell id="3ZAxSjUYN-ONwInewf79-23" value="" style="edgeStyle=orthogonalEdgeStyle;html=1;endArrow=block;elbow=vertical;startArrow=none;endFill=1;rounded=0;" edge="1" parent="1">
          <mxGeometry width="100" relative="1" as="geometry">
            <mxPoint x="550" y="290" as="sourcePoint" />
            <mxPoint x="610" y="290" as="targetPoint" />
          </mxGeometry>
        </mxCell>
        <mxCell id="3ZAxSjUYN-ONwInewf79-24" value="AWS CodeBuild" style="sketch=0;outlineConnect=0;fontColor=#232F3E;gradientColor=none;strokeColor=#ffffff;fillColor=#232F3E;dashed=0;verticalLabelPosition=middle;verticalAlign=bottom;align=center;html=1;whiteSpace=wrap;fontSize=10;fontStyle=1;spacing=3;shape=mxgraph.aws4.productIcon;prIcon=mxgraph.aws4.codebuild;" vertex="1" parent="1">
          <mxGeometry x="610" y="250" width="80" height="110" as="geometry" />
        </mxCell>
        <mxCell id="3ZAxSjUYN-ONwInewf79-25" value="" style="edgeStyle=orthogonalEdgeStyle;html=1;endArrow=block;elbow=vertical;startArrow=none;endFill=1;rounded=0;" edge="1" parent="1">
          <mxGeometry width="100" relative="1" as="geometry">
            <mxPoint x="690" y="290" as="sourcePoint" />
            <mxPoint x="745" y="290" as="targetPoint" />
          </mxGeometry>
        </mxCell>
        <mxCell id="3ZAxSjUYN-ONwInewf79-27" value="Amazon S3" style="sketch=0;outlineConnect=0;fontColor=#232F3E;gradientColor=none;strokeColor=#ffffff;fillColor=#232F3E;dashed=0;verticalLabelPosition=middle;verticalAlign=bottom;align=center;html=1;whiteSpace=wrap;fontSize=10;fontStyle=1;spacing=3;shape=mxgraph.aws4.productIcon;prIcon=mxgraph.aws4.s3;" vertex="1" parent="1">
          <mxGeometry x="750" y="250" width="80" height="100" as="geometry" />
        </mxCell>
        <mxCell id="3ZAxSjUYN-ONwInewf79-28" value="" style="edgeStyle=orthogonalEdgeStyle;html=1;endArrow=block;elbow=vertical;startArrow=none;endFill=1;rounded=0;" edge="1" parent="1">
          <mxGeometry width="100" relative="1" as="geometry">
            <mxPoint x="830" y="290" as="sourcePoint" />
            <mxPoint x="885" y="290" as="targetPoint" />
          </mxGeometry>
        </mxCell>
        <mxCell id="3ZAxSjUYN-ONwInewf79-29" value="AWS CodeDeploy" style="sketch=0;outlineConnect=0;fontColor=#232F3E;gradientColor=none;strokeColor=#ffffff;fillColor=#232F3E;dashed=0;verticalLabelPosition=middle;verticalAlign=bottom;align=center;html=1;whiteSpace=wrap;fontSize=10;fontStyle=1;spacing=3;shape=mxgraph.aws4.productIcon;prIcon=mxgraph.aws4.codedeploy;" vertex="1" parent="1">
          <mxGeometry x="890" y="250" width="80" height="110" as="geometry" />
        </mxCell>
        <mxCell id="3ZAxSjUYN-ONwInewf79-30" value="AWS CloudFormation" style="sketch=0;outlineConnect=0;fontColor=#232F3E;gradientColor=none;strokeColor=#ffffff;fillColor=#232F3E;dashed=0;verticalLabelPosition=middle;verticalAlign=bottom;align=center;html=1;whiteSpace=wrap;fontSize=10;fontStyle=1;spacing=3;shape=mxgraph.aws4.productIcon;prIcon=mxgraph.aws4.cloudformation;" vertex="1" parent="1">
          <mxGeometry x="880" y="80" width="80" height="110" as="geometry" />
        </mxCell>
        <mxCell id="3ZAxSjUYN-ONwInewf79-31" value="" style="edgeStyle=orthogonalEdgeStyle;html=1;endArrow=block;elbow=vertical;startArrow=none;endFill=1;rounded=0;" edge="1" parent="1" target="3ZAxSjUYN-ONwInewf79-33">
          <mxGeometry width="100" relative="1" as="geometry">
            <mxPoint x="970" y="290" as="sourcePoint" />
            <mxPoint x="1035" y="290" as="targetPoint" />
            <Array as="points">
              <mxPoint x="970" y="291" />
              <mxPoint x="1010" y="291" />
              <mxPoint x="1010" y="165" />
            </Array>
          </mxGeometry>
        </mxCell>
        <mxCell id="3ZAxSjUYN-ONwInewf79-33" value="VPC" style="sketch=0;outlineConnect=0;gradientColor=none;html=1;whiteSpace=wrap;fontSize=12;fontStyle=0;shape=mxgraph.aws4.group;grIcon=mxgraph.aws4.group_vpc;strokeColor=#879196;fillColor=none;verticalAlign=top;align=left;spacingLeft=30;fontColor=#879196;dashed=0;" vertex="1" parent="1">
          <mxGeometry x="1030" y="100" width="130" height="130" as="geometry" />
        </mxCell>
        <mxCell id="3ZAxSjUYN-ONwInewf79-34" value="Amazon EC2" style="sketch=0;outlineConnect=0;fontColor=#232F3E;gradientColor=none;strokeColor=#ffffff;fillColor=#232F3E;dashed=0;verticalLabelPosition=middle;verticalAlign=bottom;align=center;html=1;whiteSpace=wrap;fontSize=10;fontStyle=1;spacing=3;shape=mxgraph.aws4.productIcon;prIcon=mxgraph.aws4.ec2;" vertex="1" parent="1">
          <mxGeometry x="1070" y="130" width="60" height="90" as="geometry" />
        </mxCell>
        <mxCell id="3ZAxSjUYN-ONwInewf79-36" value="" style="html=1;endArrow=block;elbow=vertical;startArrow=none;endFill=1;rounded=0;exitX=1;exitY=0.364;exitDx=0;exitDy=0;exitPerimeter=0;" edge="1" parent="1" source="3ZAxSjUYN-ONwInewf79-30">
          <mxGeometry width="100" relative="1" as="geometry">
            <mxPoint x="970" y="120" as="sourcePoint" />
            <mxPoint x="1030" y="120" as="targetPoint" />
          </mxGeometry>
        </mxCell>
        <mxCell id="3ZAxSjUYN-ONwInewf79-37" value="AWS CodePipeline" style="sketch=0;outlineConnect=0;fontColor=#232F3E;gradientColor=none;strokeColor=#ffffff;fillColor=#232F3E;dashed=0;verticalLabelPosition=middle;verticalAlign=bottom;align=center;html=1;whiteSpace=wrap;fontSize=10;fontStyle=1;spacing=3;shape=mxgraph.aws4.productIcon;prIcon=mxgraph.aws4.codepipeline;" vertex="1" parent="1">
          <mxGeometry x="680" y="470" width="80" height="110" as="geometry" />
        </mxCell>
        <mxCell id="3ZAxSjUYN-ONwInewf79-38" value="" style="edgeStyle=orthogonalEdgeStyle;html=1;endArrow=block;elbow=vertical;startArrow=none;endFill=1;rounded=1;curved=0;" edge="1" parent="1" source="3ZAxSjUYN-ONwInewf79-22" target="3ZAxSjUYN-ONwInewf79-37">
          <mxGeometry width="100" relative="1" as="geometry">
            <mxPoint x="520" y="400" as="sourcePoint" />
            <mxPoint x="585" y="400" as="targetPoint" />
            <Array as="points">
              <mxPoint x="510" y="400" />
              <mxPoint x="720" y="400" />
            </Array>
          </mxGeometry>
        </mxCell>
        <mxCell id="3ZAxSjUYN-ONwInewf79-39" value="" style="edgeStyle=orthogonalEdgeStyle;html=1;endArrow=block;elbow=vertical;startArrow=none;endFill=1;rounded=1;curved=0;" edge="1" parent="1" source="3ZAxSjUYN-ONwInewf79-29" target="3ZAxSjUYN-ONwInewf79-37">
          <mxGeometry width="100" relative="1" as="geometry">
            <mxPoint x="850" y="380" as="sourcePoint" />
            <mxPoint x="915" y="380" as="targetPoint" />
            <Array as="points">
              <mxPoint x="930" y="400" />
              <mxPoint x="720" y="400" />
            </Array>
          </mxGeometry>
        </mxCell>
        <mxCell id="3ZAxSjUYN-ONwInewf79-40" value="IAM user" style="text;html=1;align=center;verticalAlign=middle;resizable=0;points=[];autosize=1;strokeColor=none;fillColor=none;" vertex="1" parent="1">
          <mxGeometry x="15" y="338" width="70" height="30" as="geometry" />
        </mxCell>
      </root>
    </mxGraphModel>
  </diagram>
</mxfile>
